<?xml version="1.0" standalone="no"?>
<!DOCTYPE svg PUBLIC "-//W3C//DTD SVG 20010904//EN"
 "http://www.w3.org/TR/2001/REC-SVG-20010904/DTD/svg10.dtd">
<svg version="1.0" xmlns="http://www.w3.org/2000/svg"
 width="150.000000pt" height="150.000000pt" viewBox="0 0 150.000000 150.000000"
 preserveAspectRatio="xMidYMid meet">
<metadata>
Created by potrace 1.11, written by Peter Selinger 2001-2013
</metadata>
<g transform="translate(0.000000,150.000000) scale(0.100000,-0.100000)"
fill="#000000" stroke="none">
<path d="M530 1370 c0 -12 40 -34 47 -26 9 8 -17 36 -33 36 -8 0 -14 -4 -14
-10z"/>
<path d="M650 1292 c0 -5 8 -17 18 -28 10 -10 16 -27 14 -36 -4 -19 13 -25 23
-9 8 13 -27 80 -42 81 -7 0 -13 -4 -13 -8z"/>
<path d="M754 1215 c-17 -13 -17 -14 -2 -15 9 0 20 5 23 11 11 17 0 20 -21 4z"/>
<path d="M790 1082 c0 -6 -10 -12 -22 -14 -16 -2 -30 -17 -44 -46 -11 -23 -23
-39 -28 -35 -12 12 -26 -19 -26 -59 0 -32 -4 -39 -25 -44 -14 -3 -30 -14 -35
-24 -14 -25 -13 -30 5 -24 9 4 15 0 15 -9 0 -11 9 -15 27 -14 26 2 27 0 24
-43 -1 -25 -7 -49 -12 -55 -5 -5 -9 -25 -9 -45 0 -22 3 -30 9 -22 4 7 6 24 3
38 -3 16 0 24 9 24 9 0 14 13 15 39 1 21 7 48 14 61 11 20 16 21 70 15 42 -5
73 -2 107 9 44 14 152 18 153 6 1 -3 5 -25 10 -50 5 -25 6 -64 3 -88 -6 -42
-6 -42 -27 -25 -15 13 -14 10 4 -10 l25 -29 9 54 c4 29 8 96 7 148 -1 94 -1
94 -35 126 -23 21 -38 28 -45 21 -7 -7 -12 -2 -16 16 -7 25 -55 79 -55 60 0
-5 -12 -15 -26 -22 -23 -10 -25 -10 -19 10 7 20 6 20 -23 5 -29 -15 -31 -15
-34 6 -3 21 -28 39 -28 20z"/>
<path d="M112 723 c-54 -32 -59 -44 -33 -86 25 -41 26 -48 6 -41 -18 7 -20
-12 -3 -22 6 -4 14 -2 16 4 2 7 9 9 15 5 6 -4 -1 15 -17 41 -26 44 -27 49 -12
65 9 10 35 26 57 36 38 18 40 18 55 -1 14 -18 15 -18 4 4 -13 28 -34 27 -88
-5z"/>
<path d="M1101 673 c0 -29 2 -33 8 -18 7 18 4 55 -5 55 -2 0 -4 -17 -3 -37z"/>
<path d="M1342 690 c0 -14 2 -19 5 -12 2 6 2 18 0 25 -3 6 -5 1 -5 -13z"/>
<path d="M225 680 c-3 -5 8 -23 26 -39 17 -16 29 -33 26 -38 -3 -4 1 -19 9
-33 7 -14 13 -21 14 -17 0 5 -5 17 -10 28 -6 10 -8 19 -6 19 3 0 13 -14 22
-31 8 -17 11 -28 5 -25 -5 4 -13 0 -18 -7 -14 -23 -98 -67 -129 -67 -23 -1
-26 -3 -13 -10 28 -17 110 2 105 23 -1 7 -1 9 1 5 6 -10 60 18 66 34 3 7 6 9
6 3 1 -20 -15 -34 -72 -64 l-58 -30 38 -16 c20 -9 45 -23 54 -31 15 -14 22
-12 73 16 31 18 56 34 56 37 0 2 -18 42 -40 88 -38 79 -49 92 -137 157 -6 5
-14 5 -18 -2z"/>
<path d="M760 678 c0 -4 16 -8 35 -8 19 0 35 2 35 4 0 2 -16 6 -35 8 -19 2
-35 0 -35 -4z"/>
<path d="M204 637 c4 -12 -1 -21 -17 -28 l-22 -10 23 5 c13 2 22 -1 22 -8 0
-20 47 -70 54 -58 3 6 1 14 -5 17 -5 4 -8 13 -5 21 3 7 1 16 -5 19 -5 4 -7 11
-4 16 4 5 -2 12 -12 16 -10 4 -22 11 -26 17 -5 7 -7 4 -3 -7z"/>
<path d="M150 605 c0 -18 53 -94 62 -89 7 4 6 9 -1 14 -7 4 -13 17 -14 28 -1
12 -4 22 -8 22 -4 0 -15 7 -23 16 -9 8 -16 13 -16 9z"/>
<path d="M710 594 c0 -34 27 -114 46 -135 9 -11 15 -21 13 -23 -3 -3 -37 -12
-77 -20 -102 -21 -123 -34 -138 -81 -6 -22 -12 -35 -13 -30 -1 6 -12 23 -25
39 l-23 30 -72 -43 c-39 -24 -71 -49 -71 -57 0 -19 63 -123 110 -183 l40 -51
167 0 167 0 -55 57 c-30 32 -65 70 -79 86 l-24 27 33 34 33 34 -41 13 c-22 7
-41 15 -41 20 0 14 71 69 89 69 10 0 33 -3 50 -6 26 -5 30 -10 25 -26 -3 -12
1 -27 11 -38 12 -13 14 -23 7 -37 -22 -41 -25 -114 -7 -174 10 -32 22 -59 26
-59 13 0 43 104 40 144 -1 21 -9 55 -17 74 -13 31 -13 37 0 51 9 9 13 26 10
37 -5 17 0 22 26 28 56 11 80 7 105 -19 34 -33 31 -51 -11 -65 l-36 -12 31
-32 c17 -18 31 -35 31 -39 0 -5 -33 -43 -72 -85 l-73 -77 124 -3 c80 -2 128 1
135 8 13 13 15 260 3 302 -6 23 -18 31 -73 48 -36 11 -75 20 -85 20 -24 0 -24
-1 6 57 13 26 27 68 31 93 l6 45 -19 -35 -18 -35 -130 0 -130 0 -17 35 c-14
27 -18 30 -18 14z m198 -70 c42 -12 22 -24 -40 -24 -58 1 -61 2 -44 15 21 16
47 19 84 9z"/>
<path d="M95 550 c-9 -14 37 -31 50 -19 6 7 5 13 -5 19 -20 13 -37 12 -45 0z"/>
<path d="M120 500 c0 -5 14 -10 31 -10 17 0 28 4 24 10 -3 6 -17 10 -31 10
-13 0 -24 -4 -24 -10z"/>
<path d="M428 405 c-3 -3 -16 -8 -28 -10 -32 -6 -86 -63 -73 -76 20 -20 153
57 138 81 -7 11 -28 14 -37 5z m-23 -58 c-10 -5 -21 -4 -30 3 -16 13 -10 34 6
25 5 -4 9 0 9 7 1 8 6 5 15 -7 14 -17 13 -20 0 -28z"/>
</g>
</svg>
